<svg id="レイヤー_1" data-name="レイヤー 1" xmlns="http://www.w3.org/2000/svg" viewBox="0 0 554.01 169.55"><defs><style>.cls-1{fill:#fff;}</style></defs><title>logo</title><path class="cls-1" d="M280.63,364.19l2.84,1,1.88,2-.35,1.92.09,2.44-1.25,2.91.24,1.64,2.57-.12,3.44-.19,2.55.36,2.54,0,3.35.57,2.5.05,2.48.05,2.48-.61,3.24.53,2.43-.4,2.38.54,2.39-.32,2.31.79,2.35-.21,2.29.21,2.09,0,3.11-.72,2.26-.29,3.37.83.56,2.09-.87,3.08-.8,2.62-.19,3.05-1.45,3.09L332,394l-.75,2.82-.67,2.18.74,2.22-1.39,2.87-2.31.66L325,403.11l-.7-1.94-.19-3.28.11-3.23.9-2.35-.92-2.4,1.13-2.25-.5-2-2.07-1.76-2.84.4-2.69-.48-2.69-.83-2.77-.25-2.86.25-2.81-.56-2.85-.54-2.95.72-2.9-.79-3-.36-2.25.59-2.25.24-2.26,0-2.27-.1-1.66-.86-3.25.57-3.24-.37-3.22.46-3.2-.23-3.18.59-3.16,0-2.36.21-2.36-.1-2.37-.43-2.3.69-2.34-.22-2.3.23-2.32-.22-2.27.51-2.11.35-3,.73-2.59.36-.91,1,.28.73-.3,3.55-.16,3.43.26,3.28-.37,2.06-.91,2.55-.85,1-2.78,2.25-2.21-1.58-.51-3.43-.08-3.37.65-3.37-.58-2.43-.24-2.42.22-3.24-.8-2.27-.15-2.32-1-1.77,1.58-2.46,2.53-.8,2.65-.18,1.17,1.31,3.71.55,3-.33,3.11-.34,3.2-.13,2.64.25,2.69,0,2.75.31,2.79-.74,2.85.75h2.88l2.19-.9,2.22.75,2.24.16,2.26-.68,2,.78.49-.52-.48-3.71-.54-2.57.39-3.36,2.2-2ZM259.13,387.9l2.28.26,1.66.82,3.4.08,2.39.65,3.12-.06,2.66-.52,3.13.34,2.73-.44,3.37.15,1.29-.21,2.64.86,2.79-.7,2.87.38,3-.19,1.83.32,2.7.06,2.14-.38,2.81,1.14.69,2.63-.09.84-.43,2.55-.14,2-.45,3.61-.07,3-.28,2.29.49,2.57.11,2.89-.08,1.79-.55,3.33-3.16.71-3.28.42-2.36-1L294,418l-2.35-.25-2.35,0-2.3-.42-2.1.81-.26.6-.56,2.27-1.31,2.45L281.9,426l-1.21,2.23,3.35-.43,1.78.45,3.35-.53,2.76-.28,2.81.5,2.89,0,3,.26,2.27-.18,1.72.43,2.8-.09,2.11-1.23,2.73,1.87.68,2.65.25.94-1.23,3.19-.29,1.91.4,2.94-.22,2.95-.53,3-.14,1.68.09,3.22,1.21,3.54-.79,2.29-.62,3-2.6,1-3.33-.08-3.32-.09-2.5.48-2.42-.56-2.43.23-2.38-.65-3.17.28-2.35-.24-2.33.22-2.3-.33-1.82.41-3.42-.2-3.33-.18-3.21-.42-3,.18-2.81.53-1.76-.46-1.47.18-3.41.48-3,0-2,.9L250,460.6l-1.29-2.76.53-3.38.85-3.24-.46-2.46.22-3.1-.11-1.62.22-3.34.22-2.82L250,435l-.24-2.23-.85-2.12.88-3.06,2.95-.39,2.31-.22,1.73.08,3.28.7,2.39.59,2.78-.27,3.32-.57,3,.16,2.54.13,1,.35.18-2.61,1.47-2,.27-3.08-.65-1.57.64-1.1-3.26-.23-3,.56-2.77-.05-2.16.09-2.74.27-2.25-.22-1.56.88-2.6-1.37-1.29-2.54.86-2.48.14-2.49.39-2.4-.36-2.38.7-2.28-.81-3.33-.24-2.81-.67-2.89-.2-1.9,1.47-2.74Zm20.95,66,2.78.57,2.83-.21h2.87l2.92-.42h3l2.22.39,2.26-.22,2.27.19,1.34.73,1.62-1.89.21-3,.47-3.48-.31-3.11.25-2.69-.57-3.33,0-1.51-.62-2.08-2.73.18-2.87.51-3-.54L292,433.8l-3.19.09-2.61.1-2.68.33-2.73-.28L278,434l-2.83,0-2.88.37-2.92-.47-2.22.31-2.24-.79-2.26.84-1.9-.44-1.89.9-1,1.84-.29,3.16-.1,3.14.1,3.12.24,2.35-.93,2.19-.16,2,1.8,2.41,1.64.06,2.66-.35,2.72-.64,2.82,0,2.89.61,2.19.07h2.23l2.24-.94Zm.56-42.5,2.79.08,2.85.22,2.94-.55,3,.21,2.25.31,1.66-.36,1.68-1.14.85-2.72-.15-3.24.32-2.88v-2.44l-.8-1.44-.81-1.62-2.73-.52-3,.61-3.08-.57-3.26.2-2.68.16-2.75-.68-2.84.2-2.91.47-3-.73-2.26.09-1.53-.07-3.15,3,.79,3.14-.48,3.09-.19,3.08-.91,2.44,2,1.59,1.36.23,3.41-.28,2.86.45,2.9-.71,3-.17Z" transform="translate(-52.37 -329.45)"/><path class="cls-1" d="M506.28,370l2.23-.2,1.65.64,3.47.17,2.23.28,2.78-.48,2.95.27,3.14-.14h2.69l2.88.54,3.11-.06,2.67-.09,2.89-.23,3.2-.19,2.74.17,3.1-.44,2.64.81,3.1-.48,2.69.25,2.21.21,1.61-.5,1,.21,3.27.42,2.66-.26,2.7,0,2.74-.3,2.78.65,2.83-.67,2.85.29,2.9-.25,2.91.64,2.22,0,2.23-.28h2.26l2.25.74,1.82-.09,2.73-.84,2.09-.5,2.07.56,1.77,2.07-.37,1.63-.48,2.54-.28,2.55,0,3,.18,2.66-.43,2.83.13,2.23L605,392l-.27,2.86.14,2.9,0,2.91-.12,2.93-.31,2.94.87,3-.44,3-.53,3,.05,2.27.35,2.27-.06,2.08.59,2.89v3l0,3.16-.81,2.62-.07,2.67.71,2.73-.27,2.8,0,2.85.09,2.91L605,450l-.19,2.25.39,2.26,0,1.32-.13,2.68-1.53,1.66-2,.17-3.38.23-3.34-.06-3.32-.17-3.3,0-3.25-.85-2.45.15-2.45.19-2.43.1-3.2-.07-2.39-.41-2.38.12-2.37.08-2.34-.63-2.34-.11-2.33.59-2.3-.69-2.3.08-2.2-.34-3.49.25-3.46-.25-3.39.63-3.33.13-3.27-.71-3.15.28-3.07-.18-2,.64-1.9.32h-2.67l-1.65.06-1.36-.37-3.29.11-3.46.48-2.9.1-3,0-1.71.55-3.53-1.25-.56-2.55.89-2.56,0-3.44-.5-2.57.27-2.52.67-2.5v-3.33l.21-2.46,0-2.45.06-2.43-.15-3.21-.38-2.38.59-2.35-.11-2.33-.68-2.3.38-1.91-.21-3.21.31-2.6.33-2.64-.21-2.68,0-2.72-.51-2.74-.23-2.79-.1-2.82.45-2.86.09-2.88.07-2.92-.13-2.94-.76-2.21.27-2.24.18-2.27-.46-2.26.16-1.86,1-2.75Zm47.09,82.43h2.77l2.79-.07,2.81.26,2.83,0,2.86.41,2.88-.21,2.9-.58,2.92.45,2.93.12,3,.12,3,.24,2.25-.78,2.24.57,2.27-.16,2.26.63,1.52-.64,2.45-2-.26-2.71.11-2.8-.19-2.92-.39-3,.88-2.64L597.8,434v-2.88l.25-3-.11-2.61.07-2.74.07-2.89-.32-3.07-.46-2.64.9-2.81-.63-3,.62-2.56-.12-2.78-.35-3,.25-2.58-.15-2.86.19-2.37-.51-2.7,0-2.18.67-2.6-.1-2.07.08-2.54-.47-.79-1-2.13-2.69.94-2.74-.46-2.81.17-2.88.15-2.92-.79-3,.56-3-.51-3.1-.13-3.16.39-2.55-.53-2.59-.08-2.62.45-2.65.14-2.68.19-2.71-.76-2.74.28-2.76.06-2.79-.13-2.82-.32-2.84.2-2.86.6-2.89-.7-2.91.39-2.21-.21-2.2.25-2.22-.65-2.23,1-2.26-.72-2.25.66-2.27-.89-1.84.06-3,3.11,0,3.23.35,3.21,0,3.21,0,3.21-.3,3.2v3.18l-.4,3.18.57,3.18-.61,2.36.15,2.37.44,2.37.2,3.15-.63,2.34.58,2.36-.36,2.34-.58,2.32.6,2.35.1,2.33v4.64l-.38,2.3.22,2.32-.45,2.29.12,2.3.12,2.29-.5,2.27-.16,2.18,1,2.2,2.39.09,2.66.61,2.69.11,2.71-.14,2.74-.49,2.79.13,2.81-.59,2.85.06,2.89.75,2.91-.47,2.94-.22,3-.17,2.25.62,2.25-.38,2.27,0ZM536.26,403l3.47.37,2.62.67,2.4-.59,2.67.84,3.13-.68,2.74.18,3.37.3,1.23.05,2.69.33,2.85-.45,3,0,1.9-.15,2.83-.08,1.4.07,3,.38,1.07,2.82-.16.68-1.48,2.44-.13,3,0,2.52.95,3.08-1.45,3-2.21.72-3.31-.48-3.26-.19-3.19-.56-3.17.85-2.3-.29-1.42-.05,0,1.83-.55,3.18.42,2.38-.45,2.24.64,2.81-.82,2.39.48,2.82.45,2.4-.46,1.62.24,3.17-1.3,3.3-2.36.79L549.33,449l-.34-3.41-.1-2.07-.23-2.84-.12-2.73.89-2.55-.76-2.43.53-1.5-.51-2.21.16-1.93L547,429.56l-2.93,1.35-1.2,2.12-2,1.18-1.35,1.51-2.83,1.07-2.29,1.89-2.64,1.41-3,.72-1.48,1.26-2.28.28-2.59-.51-2-2.09-1.26-.82L517.37,437,516,434.81l3.18-1.77,2.82-.19,2.56-.45,2.2-.57,3.09,0,3-.72,1.74-1.73,2.13-.74,1.7-1,2.92-1.33,2.17-2.31,1.82-1.37,1.32-.69H544l-2.71-.18-3.43,1.11-2.13.48-3-1.25-.71-2.24.75-2.48.85-3.09-.31-1.79-.56-3.46.12-2.06,1.07-3Zm-1.65-19.56,3.25-.52,2.81.34,3.37.18,3.06-.12,1.53-.08,1.66.08.25-2.65,2.1-1.91,1.83-.34,2.51.86,1.63,1.45.65,2.29,2.79.17,3.16-.14,2.72-.5,3.22.81,2.85-.65h2.42L578,383l1.41,2.14-1.23,2.64-3.48,1.77-3-.88-2.59-.16-2.78.55-2.84-.57-3-.35-1.76.27-.46,3.22,0,1.8,3.15.45,2.82-.34,3.11.4,2.63-.79,3,.31,2.46.19,2.85.18,2.35,0,2.85-.32,2.42-.24,1.57.71,1.56,1.3-.12,2.34-1.1,1.56L585,400l-1.68.33-3,.19-3.26-.3-2.88-.53-1.77-.15-2.85.21-2.89.47-2.89-.51-3,.17-3-.16-3-.27L553,399l-3,.78-3-.26-2.92.2-2.84.29-2.77-.2-2.67.12-2.56.13-2.39.46-1.91.19-2.89,1.1-2.62.23-2.52-1.71-1.3-2.33,2-3.39,2.82-.38,1.76-.1,2.92-.22,3.24-.15,2.8-.17,3.17.24,2.72-.06,3.23-.42,2.85.24,2.43-.11,2,.31-.43-3.4-.12-2.24-3.28.17-1.78-.2-3,0-2.63.47-2.74.81-2.15.57-1.76.18-2.53-.87-1.27-2.14,1.83-2.61Zm19.86,32.84,3.49.82,2.89-.2,3-.24,2.38.78,2.17-1.72,0-3.31-.61-1.62-.58-1.1h-2.8l-3-.39-3.23.35-2.67-.19-2.77-.29-2.87.18-2.95.2-2.26-.34-1.41-.06-1.89,2.19-.9,2.17-1,1.57,3.21,1.82,3.44-.16L549,417l3-.27Zm27.25,2.18,3.17.52.22,3L584,424.28l-1,1.4-2.87,1.07-2.58.59-2.36,1.57-2.77.81-3,.38-1.27.93v.34l3.26,1.48,3.24,1.31,3.08,1.28L580.4,437l1.8.9,2.37,1,1,.36,2.82.19,2.32,1.06,1.7,1.29-1,2.84-1.8,1.76L586.74,448l-2.33.45-2.15-.09-2.91-.69-1.59-.74-1.4-2.68-2.76-1.37-1.21-1.93-1.84-1.32-1.83-1.34-1.51-1.3-2.27-2.49-1.84-1.27-1.11-.69-2.19.29-2.41-1.64,1.68-2,2.46-1.34,2.53-1,2.37-1.3,2.43-1,2.29-1.17,2.2-1.21,2.5-.47,2.44-2,1.36-1Z" transform="translate(-52.37 -329.45)"/><polygon class="cls-1" points="426.13 77.77 423.1 77.91 420.22 77.99 417.33 77.94 414.41 77.7 411.43 77.95 408.45 77.66 406.17 77.8 404.2 77.58 401.12 77.53 399.2 77.16 400.24 73.99 401.7 71.46 402.35 69.12 403.5 66.39 404.81 64.2 405.2 63.28 403.97 60.69 401.66 59.35 400.38 58.98 397.66 60.51 396.35 62.67 396.26 66.26 395.49 69.5 395.51 72.43 395.45 74.93 395.5 76.07 395.42 77.06 392.25 76.53 389.12 76.25 386.04 76.15 384.34 76.87 381.58 76.69 379.37 76.59 378.03 76.81 377.6 73.39 377.44 70.28 377.91 67.58 378.1 64.25 377.53 62.75 376.96 60.04 374.54 58.58 373.01 58.85 370.15 59.82 368.83 62.17 369.88 64.44 370.92 67.07 371.66 69.3 372.14 72.15 373.01 74.4 373.66 75.89 374.31 77.23 371.17 77.7 367.9 78.2 365.14 78.13 362.41 78.89 359.48 78.92 356.55 79.33 354.39 80.02 352.89 80.66 349.81 81.05 348.38 82.16 347.17 84.38 346.58 86.24 347.16 89.39 350.12 90.27 353.69 89.43 356.47 88.19 359.32 87.18 362.21 86.27 364.28 85.24 366.61 85.08 368.12 84.58 371.44 83.9 374.23 83.66 377.08 83.2 380.02 82.9 382.27 83.19 384.34 82.64 386.96 82.85 389.52 82.93 392 83.41 394.45 83.17 397.55 83.53 399.04 83.84 399.21 86.65 398.66 89.95 398.97 93.46 399.04 95.83 399.33 98.82 399.61 101.83 399.9 104.84 399.99 107.87 399.75 110.15 399.61 111.7 399.89 114.71 399.48 118.22 399.23 120.23 397.19 122.14 395.56 123.44 392.53 124.61 389.96 125.02 387.08 125.22 384.93 125.5 382.71 127.31 383.34 130.36 385.37 132.44 387.79 134.34 390.23 134.3 393.05 133.82 395.21 133.66 397.48 133.43 399.16 132.21 401.88 131.23 404.16 129.62 405.25 127.08 405.93 124.42 406.55 121.6 406.93 119.64 407.03 116.83 406.66 113.8 407.08 110.57 406.72 107.9 406.42 105.12 406.64 102.24 406.32 100.05 406.31 97.8 405.9 95.83 406.58 93 406.72 90.03 407.09 88.5 407.3 85.42 410.14 86.36 412.12 87.43 414.28 88.06 416.36 88.48 419.19 89.45 420.76 89.82 423.33 88.21 424.83 86.21 426.02 83.27 426.36 80.98 426.98 79.25 426.13 77.77"/><polygon class="cls-1" points="341.62 58.39 339.42 59.29 337.73 61.07 337.51 63.94 337.01 65.28 337.49 68.22 337.28 71.13 337.29 73.99 337.19 76.81 337.66 79.58 337.21 82.31 337.67 84.96 337.76 87.57 337.54 90.11 337.84 92.56 337.85 95.71 337.89 97.46 335.19 99.51 331.27 99.48 329.1 99.01 328.78 96.38 328.98 93.51 329.18 90.52 328.91 87.36 329.17 84.63 328.67 81.72 328.76 78.64 329.01 76 328.7 73.18 329.05 70.15 328.72 67.57 328.91 64.77 329.44 61.72 329.3 59.13 329.1 56.23 329.27 53.84 329.08 51.09 329.35 48.86 328.99 46.2 328.99 44.02 329.27 42.46 329.36 41.19 328.58 38.31 326 37.34 324.51 36.92 322.06 37.35 320.03 39.47 320.03 41.19 320.38 43.92 320.21 46.78 320.3 49.77 320.46 52.93 320.15 55.67 320.35 58.57 320.94 61.63 320.44 64.28 320.72 67.1 320.87 70.12 321.29 72.69 321.14 75.48 320.75 78.55 321.5 81.12 321.59 84.01 321.44 86.4 321.14 89.15 321.36 91.36 321.62 94 321.36 96.15 321.46 97.7 321.71 99.17 317.95 99.57 315.31 99.74 313.3 97.86 313.37 94.49 313.43 91.15 313.41 87.86 313.57 84.62 312.96 81.46 313.27 78.35 313.08 75.34 313.25 72.43 312.91 70.54 313.28 68.7 313.15 66.13 313.15 64.5 312.43 63.26 311.35 60.83 309.8 59.44 307.94 59.59 305.06 60.46 304.01 62.68 304.67 65.66 304.41 68.65 304.78 71.52 305.19 74.34 304.97 77.14 305.58 79.81 305.33 82.45 305.44 84.98 305.55 87.39 305.6 89.8 305.5 92.76 305.71 95.76 305.41 98.75 305.3 101.79 304.91 103.34 305.38 106 307.25 107.35 309.45 108.16 312.45 107.55 315.4 106.81 318.41 106.47 320.69 106.36 322.95 106.26 325.06 106.12 327.99 105.78 330.83 106.19 333.57 106.32 336.2 106.05 338.68 106.15 341.07 106.68 344.25 105.06 344.93 102.26 344.64 99.39 344.78 96.49 344.26 93.22 344.53 90.41 344.09 87.45 344.55 85.82 344.31 83.02 344.27 80.19 344.41 77.31 344.25 74.39 344.53 71.45 344.7 69.22 344.65 66.96 345.33 64.73 345.23 63.23 344.88 60.52 343.45 58.95 341.62 58.39"/><path class="cls-1" d="M438.27,444.58l0-4.14.17-2,0-3.11,0-2.29.18-2.26.49-3.85.42-.51-1.29-2.59-2.13-.79-2.41.55-1.82,0-3.23-.54-2.25.1-2.85-.05-2.42-.13-1.57.09-2.65-.17-2.42-.19-3.43-.11-2.81.94-.43,2.26.45,2.54.25,2.48.24,2.37,0,2.07,0,2.7-.39,2.82-.25,3-.25,1.78,1.07,2.63,2.18.8,3.39-1.17,2.66-.38,2.75-.19,2.39.08,2.79,0,2.84.23,2.92.28,2.24.2,2.08.23,2.61-1Zm-6.39-3.28-1.6,1.66-3.24-.29-2.37-.11-2.34-.13-2.43.18-2.35.44-2.15-.93-.61-1.38.14-2.93.38-3,.08-2.26-.1-2,2.24-2.25,2.88.19,2.78,0,2.65.11,2.48.22,2.48.26,1.15,1-.19,3,0,3.65.17,3.37Z" transform="translate(-52.37 -329.45)"/><polygon class="cls-1" points="361.09 56.6 364.43 56.29 365.79 55.45 368.42 55.03 371.38 54.93 373.89 54.59 376.55 54.48 379.35 54.57 382.26 54.65 384.49 54.19 386.42 54.29 389.68 54.64 392.89 54.36 396.04 54.76 398.39 54.48 400.68 54.96 402.58 54.84 405.82 55.37 407.9 55.72 410.6 55.8 411.77 56.16 414.65 55.28 416.87 54.41 417.88 51.52 418.13 49.62 416.08 48.19 413.25 47.66 410.13 48.13 407.47 47.79 404.5 47.65 402 48.01 399.12 47.82 396.72 47.66 393.78 48.05 391.27 48.03 390.02 48.1 390.74 45.1 390.91 42.28 391.76 40.1 390.93 37 388.46 35.47 386.7 35.13 383.92 36.11 382.04 38.06 381.53 40.68 382.48 43.55 382.98 46.38 383.19 47.66 379.64 47.93 376.44 48.23 373.69 48.15 370.41 47.71 367.48 48.06 364.97 47.95 363.87 48.05 361.39 48.39 359.02 49.24 357.5 51.13 356.6 52.83 358.59 55.78 361.09 56.6"/><polygon class="cls-1" points="0.87 94.67 0.22 95.68 0.92 96.67 1.22 97.66 0.95 98.67 0.75 99.68 0.7 100.69 1.08 101.66 0.48 102.73 1.94 103.57 1.16 104.67 0.84 105.73 1.84 106.59 1.26 107.7 2.04 108.58 1.8 109.65 2.42 110.54 2.67 111.51 3.2 112.41 2.5 113.61 3.63 114.35 3.71 115.36 3.97 116.33 4.89 117.08 4.52 118.25 5.25 119.05 4.91 120.23 5.13 121.22 5.97 121.96 6.34 122.89 6.6 123.87 7.15 124.71 7.03 125.87 7.33 126.84 8.42 127.42 8.34 128.59 9.48 129.12 9.41 130.29 10.68 130.72 10.51 131.97 10.73 133 11.79 133.53 12.86 134.04 12.26 135.61 13.73 135.83 13.37 137.29 14.16 137.96 14.71 138.8 16.02 139.07 16.23 140.17 17.12 140.73 17.52 141.69 17.82 142.74 18.76 143.25 19.97 143.52 20.23 144.62 20.73 145.52 21.8 145.88 22.65 146.43 23.02 147.46 23.68 148.21 24.06 149.27 25.51 149.17 26.23 149.84 26.97 150.5 27.64 151.25 28.41 151.86 28.91 152.83 29.58 153.59 30.55 153.97 31.63 154.18 32.34 154.88 33.26 155.29 33.31 156.99 34.25 157.4 35.61 157.13 36.09 158.25 37.22 158.3 37.86 159.18 38.99 159.2 39.35 160.62 40.88 159.88 41.38 161.07 42.55 160.95 43.28 161.73 44.35 161.78 44.77 163.27 46 162.95 46.62 164.06 47.61 164.31 48.84 163.89 49.8 164.15 50.63 164.79 51.48 165.4 52.27 166.22 53.35 166.11 54.34 166.31 55.35 166.39 56.23 167 57.18 167.34 58.34 166.77 59.12 167.85 60.2 167.59 61.31 167.06 62.19 167.78 63.1 168.39 64.1 168.48 65.03 169.09 66.08 168.85 67.12 168.53 68.06 169.18 69.11 168.61 70.06 169.38 71.12 168.35 72.06 169.53 73.09 168.66 74.08 169.38 75.08 169.19 76.07 168.96 77.05 168.86 78.06 169.23 79.09 169.55 80.1 169.46 80.99 168.73 81.88 168.16 83.06 168.85 84.02 168.52 84.74 167.52 85.58 166.98 86.47 166.6 87.48 166.44 88.65 166.51 89.25 165.37 90.21 164.99 90.94 164.2 92.47 164.73 92.69 163.21 93.51 162.66 93.89 161.81 94.61 160.93 93.62 160.32 93.14 159.11 92 158.79 90.93 159.69 89.86 159.6 88.8 159.72 87.84 160.5 86.78 160.05 85.87 160.59 84.88 160.63 83.85 160.06 82.89 160.31 81.93 160.59 80.91 159.69 79.94 159.77 79 161.16 78 159.89 77.03 160.21 76.06 161.01 75.08 160.89 74.08 160.79 73.08 160.52 72.1 159.86 71.1 159.79 70.09 159.98 69.05 160.38 68.04 160.38 67.07 160.01 66.02 160.26 64.97 160.45 64.06 159.75 63.2 158.84 62.2 158.78 61.19 158.74 60.25 158.35 59.24 158.28 58.21 158.29 57.06 158.67 56.07 158.44 55.28 157.55 54.55 156.57 53.24 157.31 52.2 157.19 51.52 156.14 50.71 155.46 49.81 155.04 48.46 155.62 47.7 154.83 47.02 153.94 46.13 153.47 45.13 153.23 44.37 152.53 43.08 152.8 42.32 152.08 41.48 151.52 40.53 151.14 40.27 149.67 38.63 150.36 38.47 148.79 37.56 148.35 36.44 148.2 35.57 147.68 35.41 146.23 34.16 146.21 33.8 145.06 32.64 144.9 31.62 144.55 30.67 144.09 30.2 143.1 29.76 142.11 29.37 141.07 28.04 141 27.05 140.55 27.11 139.12 26.42 138.39 25.96 137.47 25.34 136.69 24.27 136.28 23.22 135.84 22.76 134.91 21.8 134.38 22.07 132.94 21.08 132.41 20.12 131.85 20.24 130.56 19.65 129.75 18.97 128.99 18.53 128.09 18.08 127.19 17.36 126.45 16.37 125.83 16.46 124.65 16.57 123.48 15.17 123.04 14.56 122.21 14.86 120.97 15.03 119.81 14.16 119.09 13.56 118.25 13.45 117.22 12.84 116.38 12.03 115.58 12.82 114.28 11.83 113.53 11.86 112.48 10.94 111.69 11.35 110.54 10.26 109.77 10.79 108.61 10.15 107.72 10.37 106.66 9.96 105.71 9.81 104.71 10.28 103.63 10.41 102.61 9.78 101.68 8.94 100.75 9.78 99.67 8.75 98.73 9.7 97.67 8.55 96.71 9.86 95.67 8.74 94.67 9.17 93.67 9.35 92.67 8.92 91.64 9.63 90.67 9.27 89.64 8.93 88.6 9.28 87.62 9.32 86.61 9.49 85.61 10.28 84.71 9.47 83.56 9.7 82.57 9.83 81.56 10.33 80.63 10.96 79.74 11.79 78.91 11.8 77.88 11.43 76.74 12.68 76.06 11.63 74.69 12.86 74.03 13.13 73.06 13.17 72.01 13.8 71.18 14.47 70.37 15.07 69.54 14.48 68.2 15.61 67.61 16.05 66.71 15.8 65.48 16.46 64.68 17.24 63.96 17.95 63.22 17.66 61.9 18.3 61.1 19.59 60.72 19.41 59.42 19.82 58.49 20.85 57.97 21.7 57.35 21.81 56.2 22.04 55.13 22.78 54.42 23.99 54.09 24.69 53.39 24.89 52.25 25.96 51.86 26.24 50.77 27.11 50.21 27.46 49.17 28.21 48.49 28.45 47.31 30.12 47.59 30.74 46.8 31.14 45.75 32.08 45.3 32.5 44.25 33.16 43.47 34.25 43.22 35.06 42.63 35.41 41.43 36.67 41.44 37.24 40.51 38.62 40.75 39.38 40.1 39.92 39.1 40.47 38.06 41.48 37.78 42.45 37.45 43.38 37.07 44.01 36.11 45.22 36.26 46.29 36.17 47.1 35.56 47.87 34.85 48.86 34.6 49.38 33.28 50.34 32.94 51.54 33.23 52.3 32.39 53.4 32.48 54.37 32.2 55.55 32.6 56.44 32.11 57.04 30.59 58.32 31.47 59.27 31.15 60.33 31.28 61.09 30.13 61.99 29.5 63.03 29.53 64.06 29.61 64.99 29 66.12 29.78 67.07 29.34 68.11 29.59 69.02 28.63 70.12 29.69 71.06 28.79 72.04 28.2 73.07 28.7 74.08 28.75 75.08 29.43 76.08 29.49 77.11 28.65 78.14 28.37 79.12 29.02 80.19 28.35 81.15 28.99 82.22 28.51 83.17 29.14 84.08 29.95 85.26 28.91 86.19 29.56 87.24 29.45 88 30.77 88.97 31 90.24 30.02 90.97 31.28 91.9 31.68 92.91 31.79 94.17 31.1 94.99 31.88 96.01 32.03 96.83 32.72 97.86 32.87 98.97 32.82 99.67 33.77 100.75 33.85 101.46 34.7 102.39 35.08 103.25 35.62 104.27 35.83 104.98 36.54 105.56 37.52 106.46 37.93 107.53 37.89 108.49 38.1 109.39 38.47 110.37 38.56 111.34 38.5 112.3 38.72 113.21 38.35 113.76 37.57 114.28 36.97 114.45 36.22 114.22 35.48 114.77 34.31 114.58 33.22 113.16 33.08 112.57 32.34 111.95 31.6 111.06 31.17 110.3 30.59 109.98 29.36 108.89 29.23 108.02 28.8 107.03 28.59 106.06 28.28 105.25 27.68 104.41 27.1 103.81 25.97 102.64 26.11 101.78 25.54 101.02 24.72 99.82 25 99 24.29 98.04 23.97 96.98 23.94 96.18 23.11 95.22 22.77 94.31 22.24 93.22 22.35 92.27 21.97 91.32 21.56 90.25 21.64 89.25 21.5 88.22 21.43 87.16 21.63 86.27 20.78 85.21 20.99 84.21 20.82 83.26 20.18 82.27 19.86 81.12 21.24 80.19 20.2 79.14 20.72 78.11 21.04 77.14 19.94 76.11 20.32 75.08 20.41 74.09 20.39 73.1 20.79 72.1 20.59 71.1 20.65 70.09 20.47 69.12 20.83 68.17 21.35 67.05 20.18 66.18 21.38 65.08 20.69 64.13 21.08 63.22 21.7 62.03 20.71 61.07 21.03 60.24 22.02 59.21 21.98 58.38 22.81 57.27 22.43 56.35 22.89 55.16 22.32 54.23 22.7 53.47 23.67 52.63 24.33 51.7 24.66 50.32 23.71 49.71 24.99 48.89 25.64 47.7 25.32 46.83 25.83 46.17 26.83 44.96 26.55 44.33 27.57 43.21 27.52 42.21 27.76 41.53 28.61 40.77 29.31 39.81 29.62 38.66 29.6 37.78 30.08 36.79 30.37 36.1 31.17 35.32 31.81 34.73 32.74 33.46 32.62 32.79 33.42 32.41 34.61 31.64 35.23 30.56 35.44 29.15 35.25 28.47 36.02 27.68 36.63 27.26 37.7 26.23 38.04 25.77 39.03 25.45 40.16 24.19 40.26 23.95 41.46 22.4 41.3 22.11 42.43 21.19 42.93 21.01 44.13 19.56 44.16 19.39 45.35 19.22 46.53 18.61 47.31 17.01 47.27 17.32 48.8 16.76 49.63 15.45 49.88 14.59 50.49 14.85 51.91 13.86 52.43 13.26 53.23 12.72 54.07 12.29 54.98 11.52 55.68 10.95 56.5 10.79 57.57 10.44 58.52 10.03 59.43 9.27 60.15 8.87 61.06 8.03 61.76 8.51 63.1 7.54 63.74 6.39 64.32 7.05 65.7 5.79 66.25 5.52 67.22 5.81 68.41 5.63 69.4 5.34 70.35 4.01 70.95 4.6 72.2 4.21 73.11 4.01 74.09 3.15 74.89 3.64 76.05 2.85 76.87 2.09 77.72 2.25 78.78 2.58 79.87 2.17 80.81 1.12 81.63 2.19 82.83 2.07 83.81 1.78 84.77 1.06 85.68 1.25 86.71 1.18 87.7 0.85 88.68 1.43 89.72 1.29 90.7 0.63 91.67 0.34 92.66 0 93.66 0.87 94.67"/><polygon class="cls-1" points="72.08 5.96 72.3 6.95 72.28 7.93 72.26 8.92 72.08 9.9 72.3 10.9 71.87 11.88 72.03 12.87 72.09 13.86 71.89 14.84 71.79 15.82 71.98 16.82 71.95 17.8 72.11 18.8 72 19.78 71.85 20.77 72.11 21.76 72.03 22.75 71.94 23.74 72 24.73 71.72 25.71 71.79 26.7 71.74 27.68 71.53 28.67 71.88 29.66 71.56 30.65 71.78 31.64 71.74 32.63 71.61 33.62 71.66 34.61 71.52 35.6 71.36 36.59 71.59 37.59 71.49 38.59 71.57 39.58 71.65 40.55 71.87 41.52 72.53 42.27 73.2 42.96 73.97 43.56 74.78 44.16 75.79 44.22 76.76 44.22 77.7 44.25 78.64 44.13 79.55 43.79 80.28 43.18 81.09 42.61 81.2 41.59 81.73 40.78 81.96 39.82 81.67 38.83 81.87 37.84 81.66 36.85 81.77 35.85 81.61 34.86 81.58 33.86 81.46 32.87 81.72 31.87 81.42 30.89 81.45 29.89 81.43 28.89 81.21 27.9 81.4 26.9 81.24 25.91 81.42 24.91 81.44 23.91 81.26 22.92 81.23 21.93 81.25 20.93 81.17 19.93 81.31 18.94 81.33 17.94 81.08 16.95 81.23 15.95 80.97 14.96 81.13 13.96 80.83 12.97 81.03 11.97 81.11 10.96 80.89 9.97 80.67 8.98 81.05 7.97 80.69 6.97 80.99 5.96 80.82 4.96 80.58 3.98 79.97 3.15 79.63 2.21 78.97 1.47 78.33 0.72 77.53 0.09 76.52 0 75.63 0.4 74.74 0.76 73.98 1.4 73.53 2.28 73.12 3.17 72.63 4.03 72.36 4.98 72.08 5.96"/><path class="cls-1" d="M134,433.32l-3.93.53-2.17.47-3.17.55-3.11.42-3.2.12L116.61,437l-2.37.32-1.59,1.1-2.47,2.31-2.62,1.87-1,2.91-.51,2.07-1,2.07-.4,2,1.07,2.77,2,2.12,1.68.06,3.11.06,2.12-2.14,2.46-1,2.39-1.54,1.79-2.48,1.94-2.5,2.36-1.43,1.72-2.13,1.11-2.72,2-2.13,1.74-1.48.93-2.12Zm48.74-.86,1-3.39,1.1-3.27.6-3.3.76-3.17.24-3.17,0-3.09.55-3-.6-2.93.07-2.94-.88-2.74-.78-2.7-.89-2.64-.6-2.5L182,390.93l-1.4-2.34L179,386.43l-1.28-2.48L175.85,382l-1.38-1.91-1.14-1.78-1.83-1.45-1-.44-1.94-2.34-2.43-1.19-.9-1.66-1.8-.49-1-1.5-1.36-1-1.64-.5-1.21-1-1.13-1L156,362.55l-.44-2.94,2.11-2,2.61.42,2.15,1.45,2.6,1.57,2.51,1.06,2.13,2,2.52,1.64,2.66,1.64,1.77,1.61,1.58,1.82,1.85,1.53,1.53,1.85,2.19,1.25.92,2.28,1.77,1.58.77,1,1.19,2.49,1.43,2.62.73,2.8,1.25,2.26.79,2.58,1,2.65.22,2.94.5,2.94.61,3-.12,2.52.36,2.55-.13,2.61-.27,2.63-.11,2.71-.71,2.66-.85,2.65-.21,2.86-1.19,1.88,0,2.31-1.26,1.89L189,435.24l-.15.85-.09,2,3,1.53,3.43,0,2.29,1,2.55-.22,3,1.54,2.48-.37,2.35.22L210.1,443l2.38-.71,2,.21,3.22,2.5-1.57,2.4-1.08,2.43-1.18,1.83-.9,1.55-3,1.6L208.17,457l-2.47.63-2.74-.37-2.28-1.94-2.61-1.08-2.56-.35-1.95-2.07-2.81-.57L189,449.85l-2.15-.67-1.65-.46-1.62,2.12-.74,2.79-1.58,2.4-1.32,2.61L178,460.89l-1.37,1.77-1.31,1.85-1.14,1.77-2.13,2.45-1.73,2.66L168,473.32l-2.14,1.92-2.48,1.1-1.59.51-2,1.4-1.05-.62-3,.48-3.3-1.33-2.15-1-2.73-1.54-2.26-1.65-.24-2.26,2.23-1.5,2.38-1,2-.82,1.72-.72,2.76-1.18,3-.58,2.39-1.79,2.23-1.91,2.15-1.94,2.51-1.56,1.9-2.23,1.57-2.5,2.71-1.68,1.21-1.91.27-2.49,1.79-1.59-3.17-.92L172,442.79l-3.11-.23-2.83-1-2.89-.82-2.87-.88-2.79-1.17-2-1.34-2.27-.27-2.4.22-2-1.55-2.41.3-2.27-.21L142,434.59l-2,3-1.63,3.1-2.53,2.36-2.07,2.64L132,448.54l-2.31,2.29-1.84,2.61-2.58,1.79-1.82,2.44-2.49,1.54-1.39,1.28-2.06,1.81-1.75.46-1.4,1-2.42.28-1.47.31-.9,1.12-3.13-.42-2.8-1.16L102,462.22l-1.33-1L99,458.66l0-2.42-1.21-2,.13-2.13.21-3-.4-3,1.31-2.59,1.39-2.4,1.81-2.1,1.64-2.36,2-1,1.64-1.53,1.89-.7,2.28-1.74,2.8-.66,2.39-1.78,2.76-.93,2.85-.74,3.06.22,2.14-.78,2.23-.49,2.21-.07,3.83.39,2.5.21,1.17-2.5,1-2.48,1.7-2.5,1.08-2.48.68-2.83,1.45-2.67,1.59-2,.8-2.49.72-2.64,1.14-2.53,2.14-2.12,1.38-2.55,1-2,.76-2.14.49-1.63-2.92.25-2.27.91-2.48.17-2.19-.09-3.1.76-2.92,1.34-2.7.56-2.85.67-2.2.12-2.39.85-2.5,1h-2.65l-2.62-.64-2.57-.1-2.48.06-2.23-.7-2.73-.85-2.67-.8-1.57-2.29-.79-2-.59-3.62,2.9-2.23,2.11-.77,3.14-.22,2.58.44,2.6.91,2.92.18,2.68,1.26,2.15.79,2.29.14,1.92.09,3.06-1.54,2.95.17,3-1,2.61-.64,2.88-1,2.55-.23,3-.28,2.48-.37,3-.54,1.4-.94,1.26-.52,3.16.94,2.88-.17,2.57,1.93.09,2.21.13,2.78-1.27,2.75-1.27,2.6-.73,3.18-.93,2.6-1.45,2.49-.89,2-1.18,1.76-1.47,2.37-1.73,2.18L156,412.68l-1.12,2.42-.88,2.52-1.49,2.1-1.68,2.85-1.75,1.75-1.6,1.75-.29,1.66,2.61.79,3.13.38L156,430l2.66.23,2.49,1.25,2.81.1,2.73.67,2.64,1.31h3l2.83.84,2.26.22,2,1.25,1.69-.36Z" transform="translate(-52.37 -329.45)"/></svg>